# xmcd
# 
# Track frame offsets:
#     150
#     21244
#     42954
#     66982
#     86493
#     109405
#     127679
#     145896
#     167509
#     188102
#     210017
#     229453
#     247468
#     263316
#     281337
#     296731
#     315600
#     333956
# 
# Disc length: 4696
# 
# Revision: 12
# Processed by: cddbd v1.5.2PL0 Copyright (c) Steve Scherf et al.
# Submitted via: fre:ac v1.0.17
# 
DISCID=03125612
DTITLE=Various Artist - My Love - Ultimate Essential Collection [CD 1)
DYEAR=2011
DGENRE=Pop
TTITLE0=Celine Dion - My Heart Will Go On (Love Theme From ''Titanic'')
TTITLE1=Celine Dion - Think Twice
TTITLE2=Celine Dion - It's All Coming Back To Me Now
TTITLE3=Celine Dion - A New Day Has Come (Radio Remix)
TTITLE4=Celine Dion - My Love (Live Version)
TTITLE5=Celine Dion - Taking Chances
TTITLE6=Celine Dion - That's The Way It Is
TTITLE7=Celine Dion - The Power Of Love
TTITLE8=Celine Dion - Because You Loved Me (Theme From ''Up Close and Personal'')
TTITLE9=Celine Dion With Barbra Streisand - Tell Him
TTITLE10=Celine Dion - Falling Into You
TTITLE11=Celine Dion - I Drove All Night
TTITLE12=Celine Dion - I'm Alive
TTITLE13=Celine Dion - All By Myself
TTITLE14=Celine Dion - Alone
TTITLE15=Celine Dion With The Bee Gees - Immortality
TTITLE16=Celine Dion With Peabo Bryson - Beauty And The Beast
TTITLE17=Celine Dion - There Comes A Time
EXTD=
EXTT0=
EXTT1=
EXTT2=
EXTT3=
EXTT4=
EXTT5=
EXTT6=
EXTT7=
EXTT8=
EXTT9=
EXTT10=
EXTT11=
EXTT12=
EXTT13=
EXTT14=
EXTT15=
EXTT16=
EXTT17=
PLAYORDER=
